<svg id="Ebene_1" data-name="Ebene 1" xmlns="http://www.w3.org/2000/svg" viewBox="0 0 141.7 141.7"><defs><style>.cls-1{fill:#d50f2e;}.cls-2{fill:#ededed;}.cls-3{fill:#fff;}</style></defs><circle class="cls-1" cx="70.8" cy="70.9" r="66.9"/><path class="cls-2" d="M70.8,141.7a70.85,70.85,0,1,1,70.9-70.8A70.931,70.931,0,0,1,70.8,141.7ZM70.8,8a62.85,62.85,0,1,0,62.8,62.9A62.928,62.928,0,0,0,70.8,8Z"/><path class="cls-3" d="M92.347,108.235h6.565a1.2,1.2,0,0,1,1.2,1.2h0a1.2,1.2,0,0,1-1.2,1.2H92.347a1.2,1.2,0,0,1-1.2-1.2h0A1.2,1.2,0,0,1,92.347,108.235Z"/><path class="cls-3" d="M90.442,104.446h10.376a1.2,1.2,0,0,1,1.2,1.2h0a1.2,1.2,0,0,1-1.2,1.2H90.442a1.2,1.2,0,0,1-1.2-1.2h0A1.2,1.2,0,0,1,90.442,104.446Z"/><path class="cls-3" d="M115.83,72.009l-3.31-.383a16.864,16.864,0,0,0-1.394-3.38l2.056-2.614a1.909,1.909,0,0,0-.14-2.509l-3.9-3.9a1.909,1.909,0,0,0-2.509-.14l-2.614,2.056a15.777,15.777,0,0,0-3.345-1.394l-.384-3.31a1.915,1.915,0,0,0-1.885-1.671H92.9a1.915,1.915,0,0,0-1.882,1.673l-.383,3.31a16.881,16.881,0,0,0-3.384,1.389L84.64,59.08a1.912,1.912,0,0,0-2.51.14l-3.9,3.9a1.91,1.91,0,0,0-.139,2.509l2.056,2.614a16.724,16.724,0,0,0-1.394,3.38l-3.311.383a1.914,1.914,0,0,0-1.673,1.882v5.506a1.914,1.914,0,0,0,1.673,1.882l3.308.388a18.708,18.708,0,0,0,1.394,3.345l-2.056,2.614a1.91,1.91,0,0,0,.139,2.509l3.9,3.9a1.913,1.913,0,0,0,2.51.139l1.6-1.262a15.694,15.694,0,0,1,1.694,5.484,4.363,4.363,0,0,0,4.242,4.481c.08,0,.161,0,.241,0h3.219c1.146,0,2.292.018,3.438,0a4.275,4.275,0,0,0,4.176-3.714c.1-.863.174-1.288.371-2.314a13.809,13.809,0,0,1,1.392-3.936l1.613,1.268a1.91,1.91,0,0,0,2.509-.139l3.9-3.9a1.909,1.909,0,0,0,.14-2.509l-2.056-2.614a15.866,15.866,0,0,0,1.4-3.352l3.31-.384A1.914,1.914,0,0,0,117.5,79.4V73.891A1.914,1.914,0,0,0,115.83,72.009ZM104.94,85.692a18.148,18.148,0,0,0-4.1,6.088h0c-.792,1.66-1.105,5.585-1.116,6.625a1.076,1.076,0,0,1-.986,1.159,1.206,1.206,0,0,1-.17,0q-2.991.006-5.981,0a1.09,1.09,0,0,1-1.184-.986,1.059,1.059,0,0,1,0-.2,30.5,30.5,0,0,0-1.132-6.611h0c-1.407-4.332-5.88-6.723-7.231-11.04-3.211-8.543,4-18.284,13.127-17.637C107.478,63.453,113.169,77.807,104.94,85.692Z"/><path class="cls-3" d="M49.788,48.334a2.408,2.408,0,1,0-2.408-2.408h0A2.441,2.441,0,0,0,49.788,48.334Z"/><path class="cls-3" d="M49.788,70.706A2.377,2.377,0,0,0,52.2,68.36V68.3a2.408,2.408,0,1,0-2.408,2.408Z"/><path class="cls-3" d="M49.788,88.364A2.408,2.408,0,1,0,52.2,90.772h0A2.441,2.441,0,0,0,49.788,88.364Z"/><path class="cls-3" d="M70.685,73.891a4.929,4.929,0,0,1,.873-2.78V69.7l2.006-1.2.93.558a4.552,4.552,0,0,1,.591-.109l1.394-.161.058-.142-.639-.812-1.23-.739V65.211a5,5,0,0,1,1.382-4.267l1.574-1.574H45.173l-.8-1.2H37.95V78.631h6.421l.8-1.2H70.685Zm-2.237-9.2,2.006-1.2,2.007,1.2v2.4l-2.007,1.2-2-1.2Zm-18.66,7.925a4.6,4.6,0,1,1,.06,0h-.06ZM62.328,67.1V64.687l2.007-1.2,2.006,1.2v2.407l-2.006,1.2Zm7.122,5.013-2,1.2-2.007-1.2V69.7l2.007-1.2,2.006,1.2Z"/><path class="cls-3" d="M84.856,98.419a4.678,4.678,0,0,0-.163-.911,5.01,5.01,0,0,1-4.743-1.3l-.815-.816-1.358-1.358L76.05,92.31a4.931,4.931,0,0,1-1.38-2.746h0v-.013a5.035,5.035,0,0,1,0-1.511l.274-1.048a4.777,4.777,0,0,1,.733-1.29l.867-1.1-.041-.1-1.4-.162a5.008,5.008,0,0,1-3.808-2.6H45.173l-.8-1.2H37.95v20.565h6.421l.8-1.2H85A8.236,8.236,0,0,1,84.856,98.419ZM49.788,95.084a4.282,4.282,0,1,1,.064,0Zm12.54-5.52v-2.4l2.007-1.2,2.006,1.2v2.4l-2.006,1.2Zm7.122,5.019-2.006,1.2-2.007-1.2V92.175l2.007-1.2,2.006,1.2Zm-1-5.017v-2.4l2.006-1.2,2.007,1.2v2.4l-2.007,1.2Zm7.123,5.017-2.007,1.2-2.006-1.2V92.175l2.006-1.2,2.007,1.2Z"/><path class="cls-3" d="M92.9,51.677h2.736V35.694H89.214l-.8,1.2H45.173l-.8-1.2H37.95v20.47h6.421l.8-1.2H88.229A5.039,5.039,0,0,1,92.9,51.677ZM49.788,50.14a4.314,4.314,0,1,1-.131-8.627h.131A4.345,4.345,0,0,1,54.1,45.826a4.282,4.282,0,0,1-4.25,4.314Zm12.54-5.518V42.215l2.007-1.2,2.006,1.2v2.407l-2.006,1.2Zm7.122,5.017-2.006,1.2-2.007-1.2V47.231l2.007-1.2,2.006,1.2Zm-1-5.017V42.215l2.006-1.2,2.007,1.2v2.407l-2.007,1.2Zm7.123,5.017-2.007,1.2-2.006-1.2V47.231l2.006-1.2,2.007,1.2Zm-.9-5.017V42.215l2.006-1.2,2.006,1.2v2.407l-2.006,1.2ZM81.8,49.639l-2.006,1.2-2.006-1.2V47.231l2.006-1.2,2.006,1.2Zm-.9-5.017V42.215l2.006-1.2,2.006,1.2v2.407l-2.006,1.2Zm5.116,6.22-2.006-1.2V47.231l2.006-1.2,2.006,1.2v2.408Z"/></svg>