<?xml version="1.0" encoding="utf-8"?>
<!-- Generator: Adobe Illustrator 21.1.0, SVG Export Plug-In . SVG Version: 6.00 Build 0)  -->
<svg version="1.1" id="Ebene_1" xmlns="http://www.w3.org/2000/svg" xmlns:xlink="http://www.w3.org/1999/xlink" x="0px" y="0px"
	 viewBox="0 0 141.7 141.7" style="enable-background:new 0 0 141.7 141.7;" xml:space="preserve">
<style type="text/css">
	.st0{fill:#D50F2E;}
	.st1{fill:#EDEDED;}
	.st2{fill:#FFFFFF;}
</style>
<g>
	<g>
		<g>
			<g>
				<ellipse class="st0" cx="70.8" cy="70.9" rx="66.9" ry="66.9"/>
				<path class="st1" d="M70.8,141.7c-39,0-70.8-31.8-70.8-70.8S31.8,0,70.8,0s70.9,31.8,70.9,70.9S109.8,141.7,70.8,141.7z M70.8,8
					C36.2,8,8,36.2,8,70.9s28.2,62.8,62.8,62.8s62.8-28.2,62.8-62.8S105.4,8,70.8,8z"/>
			</g>
		</g>
	</g>
	<path class="st2" d="M116.6,77.7h-3.4c-0.4-1.1-0.8-2.2-1.4-3.3l2.4-2.4c1.1-1.1,1.1-2.8,0-3.8l-4-4c-1.1-1.1-2.8-1.1-3.8,0
		l-2.4,2.4c-1-0.6-2.1-1-3.3-1.4v-3.4c0-1.5-1.2-2.7-2.7-2.7h-5.7c-1.5,0-2.7,1.2-2.7,2.7v3.4c-1.1,0.4-2.2,0.8-3.3,1.4l-2.4-2.4
		c-1.1-1.1-2.8-1.1-3.8,0l-4,4C75,69.3,75,71,76.1,72l2.4,2.4c-0.6,1-1,2.1-1.4,3.3h-3.4c-1.5,0-2.7,1.2-2.7,2.7v5.7
		c0,1.5,1.2,2.7,2.7,2.7h3.4c0.4,1.1,0.8,2.2,1.4,3.3l-2.4,2.4c-1.1,1.1-1.1,2.8,0,3.8l4,4c1.1,1.1,2.8,1.1,3.8,0l2.4-2.4
		c1,0.6,2.1,1,3.3,1.4v3.4c0,1.5,1.2,2.7,2.7,2.7H98c1.5,0,2.7-1.2,2.7-2.7v-3.4c1.1-0.4,2.2-0.8,3.3-1.4l2.4,2.4
		c1.1,1.1,2.8,1.1,3.8,0l4-4c1.1-1.1,1.1-2.8,0-3.8l-2.4-2.4c0.6-1,1-2.1,1.4-3.3h3.4c1.5,0,2.7-1.2,2.7-2.7v-5.7
		C119.3,79,118.1,77.7,116.6,77.7z M95.2,94.9c-6.4,0-11.6-5.2-11.6-11.6s5.2-11.6,11.6-11.6s11.6,5.2,11.6,11.6
		S101.6,94.9,95.2,94.9z M45.7,66.9c0-1.3,1.1-2.4,2.4-2.4c1.3,0,2.4,1.1,2.4,2.4s-1.1,2.4-2.4,2.4S45.7,68.2,45.7,66.9z M71.8,94.1
		l-2-1.1v-1.4c-1.1-0.8-1.9-1.9-2.4-3.2L66.8,88v-2.4l0.4-0.2v-4.9c0-0.1,0-0.1,0-0.2H43.5L42.7,79h-6.4v20.4h6.4l0.8-1.2h28.2
		C71.2,96.8,71.3,95.4,71.8,94.1z M48.1,93.6c-2.4,0-4.3-1.9-4.3-4.3s1.9-4.3,4.3-4.3c2.4,0,4.3,1.9,4.3,4.3
		C52.4,91.6,50.5,93.6,48.1,93.6z M60.6,87.9v-2.4l2-1.2l2,1.2v2.4l-2,1.2L60.6,87.9z M67.8,92.9l-2,1.2l-2-1.2v-2.4l2-1.2l2,1.2
		V92.9z M45.7,44.5c0-1.3,1.1-2.4,2.4-2.4c1.3,0,2.4,1.1,2.4,2.4c0,1.3-1.1,2.4-2.4,2.4S45.7,45.8,45.7,44.5z M50.4,89.2
		c0,1.3-1.1,2.4-2.4,2.4s-2.4-1.1-2.4-2.4s1.1-2.4,2.4-2.4S50.4,87.9,50.4,89.2z M43.5,75.8H69c0.9-1,2.1-1.7,3.5-2
		c-0.5-0.7-0.8-1.5-1-2.4l-1.7-1V68l2-1.2l0.2,0.1c0.3-0.5,0.6-1,1-1.5v0.1v-2.4l2-1.2l1.1,0.6l1.3-1.3c1.3-1.3,3-2,4.7-2
		c1.3,0,2.6,0.4,3.7,1.1c0.3-1.6,1.2-2.9,2.4-3.9h-0.8l-0.8,1.2H43.5l-0.8-1.2h-6.4v20.4h6.4L43.5,75.8z M66.8,63.2l2-1.2l2,1.2v2.4
		l-2,1.2l-2-1.2V63.2z M67.8,68.2v2.4l-2,1.2l-2-1.2v-2.4l2-1.2L67.8,68.2z M60.6,63.2l2-1.2l2,1.2v2.4l-2,1.2l-2-1.2V63.2z
		 M48.1,62.5c2.4,0,4.3,1.9,4.3,4.3s-1.9,4.3-4.3,4.3c-2.4,0-4.3-1.9-4.3-4.3C43.7,64.5,45.7,62.5,48.1,62.5z M43.5,53.5h43.2
		l0.8,1.2h6.4V34.3h-6.4l-0.8,1.2H43.5l-0.8-1.2h-6.4v20.4h6.4L43.5,53.5z M86.2,45.8v2.4l-2,1.2l-2-1.2v-2.4l2-1.2L86.2,45.8z
		 M79.1,40.8l2-1.2l2,1.2v2.4l-2,1.2l-2-1.2V40.8z M80.1,45.8v2.4l-2,1.2l-2-1.2v-2.4l2-1.2L80.1,45.8z M72.9,40.8l2-1.2l2,1.2v2.4
		l-2,1.2l-2-1.2V40.8z M73.9,45.8v2.4l-2,1.2l-2-1.2v-2.4l2-1.2L73.9,45.8z M66.8,40.8l2-1.2l2,1.2v2.4l-2,1.2l-2-1.2V40.8z
		 M67.8,45.8v2.4l-2,1.2l-2-1.2v-2.4l2-1.2L67.8,45.8z M60.6,40.8l2-1.2l2,1.2v2.4l-2,1.2l-2-1.2V40.8z M48.1,40.1
		c2.4,0,4.3,1.9,4.3,4.3c0,2.4-1.9,4.3-4.3,4.3c-2.4,0-4.3-1.9-4.3-4.3C43.7,42.1,45.7,40.1,48.1,40.1z"/>
</g>
</svg>
